<svg viewBox="0 0 340 243" xmlns="http://www.w3.org/2000/svg"><title>logo-main</title><g fill="none" fill-rule="evenodd"><path d="M5.17 228H5c-2.634 0-4.77-2.136-4.77-4.77 0-2.634 2.136-4.77 4.77-4.77h150V228H5.17z" fill="#fff"/><path fill="#fff" fill-rule="nonzero" d="M51.99 50.576L65.996 36.57l14.008 14.006-14.008 14.008z"/><path fill="#fff" fill-rule="nonzero" d="M51.99 78.537L65.998 64.53l14.008 14.007-14.008 14.008zM311.053 50.573l14.008-14.008 14.008 14.008L325.06 64.58z"/><path fill="#fff" fill-rule="nonzero" d="M311.053 78.534l14.008-14.008 14.01 14.008-14.01 14.008z"/><path d="M139.73 208.17v-28.9h-7.38v-4.5h22.51v4.5h-7.38v28.89l-7.75.01zm-28 0v-33.4H129v4.5h-9.58V189h9.07v4.5h-9.07v10.18h10.09v4.5l-17.78-.01zm-26.53 0v-33.4h7.76v33.39l-7.76.01zm15.59 0l-7.45-16.46 8.27-16.93h4.08l-6 12.21 9.67 21.18h-8.57zm-45.93 0l9.5-33.39h7.49L82 208.17h-8.27l-2.92-9.87h-9.29l-2.75 9.87h-3.91zm7.88-14.11h6.83l-3.58-12-3.25 12zm-18.87-5v-14.29h7.76v33.39h-7.78v-14.62h-8.31v14.63h-7.76v-33.4h7.76V189l8.33.06z" fill="#fff"/><path fill="#fff" d="M1.13 179.27v-4.5H24.4l-13.3 28.9h12.5v4.5H.37l13.28-28.9M167.56 106.63l60.65 43.27 18.8-16.01 7.49-9.52-86.94-62.02"/><path stroke="#fff" stroke-width=".22" d="M167.56 106.63l60.65 43.27 18.8-16.01 7.49-9.52-86.94-62.02z"/><path d="M174.94 100.06l56.8 40.55.08.06v.1l-.88 11v.3l-.25-.18-65.58-46.67-.07-.05V64.78h.15l4.88-.68h.12l84.44 60.12.07.05v44.37l-.27-.19c-9.67-6.9-9.19-10.19-8.73-13.22.463-1.74.134-3.596-.9-5.07v-15.67l2.39-3.22-2.36-1.86-69.89-49.72v20.37z" fill="#fff"/><path fill="#fff" fill-rule="nonzero" d="M165.08 63.88L254.4.19l.27-.19V44.71l-.07.05-42.45 30.43-.27.2V63.22l.07-.05 32.79-23.54V19.26l-67.91 48.42-1.58 1.18L173 84.45l-.31 15.11-.01.17h-.16l-7.33.28-.18.01V63.93"/><path d="M165 131.65v-.36H56.4c-6.67.14-14.4.31-21-1.28h-.15c-4.443-1.136-8.667-3-12.5-5.52-3.78-2.485-7.107-5.596-9.84-9.2-.6-.793-1.177-1.617-1.73-2.47-.413-.667-.81-1.333-1.19-2 .173 4.395.96 8.744 2.34 12.92 2.946 9.005 8.728 16.814 16.48 22.26 4.11 2.865 8.646 5.065 13.44 6.52.89.28 1.93.53 3 .77s2.53.49 3.87.69c1.53.23 3 .41 4.3.53 1.3.12 2.45.2 3.38.22h98.22v9.94H57c-3.11-.084-6.214-.365-9.29-.84-2.83-.407-5.628-1.02-8.37-1.83C15.387 155.02-.8 132.707 0 107.77c.155-10.914 3.602-21.528 9.89-30.45 6.35-9.05 15.247-16.012 25.56-20l.23-.09v3.49h-.11c-6.095 2.225-11.397 6.2-15.24 11.43-3.742 5.125-5.8 11.285-5.89 17.63-.067 7.023 2.16 13.876 6.34 19.52 4.207 5.5 10.154 9.413 16.87 11.1 5.4 1.3 12.47 1.14 18.56 1H165.26c2.608.065 5.09 1.14 6.92 3 1.82 1.946 2.815 4.525 2.77 7.19v81.83l69.75-49.81V143.3l-59.59 42.53-.27.19v-12.17l.07-.05 69.18-49.37h.54v44.42l-.07.05-80.42 57.49c-.863.785-1.887 1.372-3 1.72-1.2.32-2.477.17-3.57-.42-.843-.463-1.537-1.157-2-2-.45-.88-.66-1.863-.61-2.85v-91.18l.04-.01z" fill="#fff"/><path d="M264.5 173.93l60.24-43 .27-.19v44.71l-.07.05-71.66 51.3-.14.11c-1.05.893-2.406 1.34-3.78 1.24-1.266-.102-2.443-.694-3.28-1.65l-.09-.11-.2-.25c-.728-.976-1.067-2.188-.95-3.4.125-1.3.753-2.498 1.75-3.34l.3-.24 7.42-5.31.28-.2 60.47-43.32V150l-50.36 36-.27.19V174l.07-.07zM291.11 130.6l-.08-99.8-16.65 11.96.03 67.07v.09l-.07.05-9.55 6.83-.27.2v-.34l-.04-78.89v-.09l.07-.05 36.09-25.92.27-.19v.33l.1 123.73v.09l-.07.05-36.09 25.78-.27.19v-.33l-.01-11.77v-.09l.07-.05 9.55-6.7M311.05 106.55l14.007-14.008 14.008 14.008-14.008 14.008z" fill="#fff" fill-rule="nonzero"/><path fill="#fff" fill-rule="nonzero" d="M184.87 230.73l69.42-49.43.27-.19v12.17l-.07.05-9.59 6.85-59.83 42.58-.27.19v-12.17"/></g></svg>